HIERARCHY
ROOT Hips
{
	OFFSET 0.00 0.00 0.00
	CHANNELS 6 Xposition Yposition Zposition Xrotation Yrotation Zrotation
	JOINT RightUpLeg
	{
		OFFSET -4.47808 0.00000 0.00000
		CHANNELS 3 Xrotation Yrotation Zrotation
		JOINT RightLeg
		{
			OFFSET 0.00000 -16.40577 0.00000
			CHANNELS 3 Xrotation Yrotation Zrotation
			JOINT RightFoot
			{
				OFFSET 0.00000 -14.64414 0.00000
				CHANNELS 3 Xrotation Yrotation Zrotation
				JOINT RightToeBase
				{
					OFFSET 0.00000 -1.50274 5.60831
					CHANNELS 3 Xrotation Yrotation Zrotation
					End Site
					{
						OFFSET 0.00000 0.00000 2.95275
					}
				}
			}
		}
	}
	JOINT LeftUpLeg
	{
		OFFSET 4.47808 0.00000 0.00000
		CHANNELS 3 Xrotation Yrotation Zrotation
		JOINT LeftLeg
		{
			OFFSET 0.00000 -16.40577 0.00000
			CHANNELS 3 Xrotation Yrotation Zrotation
			JOINT LeftFoot
			{
				OFFSET 0.00000 -14.64414 0.00000
				CHANNELS 3 Xrotation Yrotation Zrotation
				JOINT LeftToeBase
				{
					OFFSET 0.00000 -1.50274 5.60831
					CHANNELS 3 Xrotation Yrotation Zrotation
					End Site
					{
						OFFSET 0.00000 0.00000 2.95275
					}
				}
			}
		}
	}
	JOINT Spine
	{
		OFFSET 0.00000 6.06821 0.00000
		CHANNELS 3 Xrotation Yrotation Zrotation
		JOINT RightShoulder
		{
			OFFSET 0.00000 10.01392 0.00000
			CHANNELS 3 Xrotation Yrotation Zrotation
			JOINT RightArm
			{
				OFFSET -7.19022 0.00000 0.00000
				CHANNELS 3 Xrotation Yrotation Zrotation
				JOINT RightForeArm
				{
					OFFSET -10.17747 0.00000 0.00000
					CHANNELS 3 Yrotation Zrotation Xrotation
					JOINT RightHand
					{
						OFFSET -8.39211 0.00000 0.00000
						CHANNELS 3 Xrotation Yrotation Zrotation
						End Site
						{
							OFFSET -3.93700 0.00000 0.00000
						}
						JOINT RightHandThumb1
						{
							OFFSET 0.00000 0.00000 0.00000
							CHANNELS 3 Xrotation Zrotation Yrotation
							End Site
							{
								OFFSET 0.00000 0.00000 3.93700
							}
						}
					}
				}
			}
		}
		JOINT LeftShoulder
		{
			OFFSET 0.00000 10.01392 0.00000
			CHANNELS 3 Xrotation Yrotation Zrotation
			JOINT LeftArm
			{
				OFFSET 7.19022 0.00000 0.00000
				CHANNELS 3 Xrotation Yrotation Zrotation
				JOINT LeftForeArm
				{
					OFFSET 10.17747 0.00000 0.00000
					CHANNELS 3 Yrotation Zrotation Xrotation
					JOINT LeftHand
					{
						OFFSET 8.39211 0.00000 0.00000
						CHANNELS 3 Xrotation Yrotation Zrotation
						End Site
						{
							OFFSET 3.93700 0.00000 0.00000
						}
						JOINT LeftHandThumb1
						{
							OFFSET 0.00000 0.00000 0.00000
							CHANNELS 3 Xrotation Zrotation Yrotation
							End Site
							{
								OFFSET 0.00000 0.00000 3.93700
							}
						}
					}
				}
			}
		}
		JOINT Head
		{
			OFFSET 0.00000 15.77748 0.00000
			CHANNELS 3 Xrotation Yrotation Zrotation
			End Site
			{
				OFFSET 0.00000 4.52755 0.00000
			}
		}
	}
}
MOTION
Frames: 22
Frame Time: 0.008333
 -3.2756 33.1442 -0.5642 8.4393 -4.2171 3.1997 -4.0786 -3.1875 -1.5736 2.9450 0.0000 -0.0000 -12.4614 -3.6548 0.5026 5.7152 0.0000 0.0000 -2.9786 5.0952 1.2854 3.4999 0.0000 0.0000 -10.8452 7.6639 -7.5902 8.5228 -0.0000 0.0000 -7.6988 -2.6143 -3.3995 -24.2384 22.5025 -35.8398 -88.5569 27.2479 114.3050 64.8828 0.0000 2.2802 1.6907 9.3494 -10.2981 32.8623 0.0000 -24.3270 -15.9307 -6.7209 23.4661 -48.4385 -27.5077 -118.5828 -87.3614 -0.0000 -48.0436 -0.3361 -1.2553 -14.9895 33.1476 -0.0000 26.2537 -16.7033 4.1529 5.1412
 -3.2801 33.1445 -0.5549 8.4147 -4.1936 3.1890 -4.0074 -3.2080 -1.5618 2.8914 -0.0000 0.0000 -12.4343 -3.6497 0.5350 5.6928 -0.0000 0.0000 -2.9553 5.0717 1.2990 3.5262 0.0000 0.0000 -10.8583 7.6573 -7.5704 8.5061 -0.0000 -0.0000 -7.7573 -2.5606 -3.3550 -24.3840 22.9859 -35.8654 -89.2756 27.7012 114.7056 65.3177 0.0000 2.1206 1.6524 9.5100 -9.9039 32.8623 0.0000 -24.3270 -15.8966 -6.7528 23.4183 -48.0366 -27.2236 -118.3341 -88.2524 -0.0000 -48.7985 -0.4450 -1.5867 -15.6690 33.1476 -0.0000 26.2537 -16.4989 4.0996 5.0536
 -3.2857 33.1451 -0.5468 8.3882 -4.1583 3.1753 -3.9417 -3.2425 -1.5434 2.8507 0.0000 0.0000 -12.4216 -3.6505 0.5325 5.7444 -0.0000 0.0000 -2.9339 5.0552 1.3180 3.5467 0.0000 0.0000 -10.8505 7.6473 -7.6134 8.4285 -0.0000 -0.0000 -7.8094 -2.4891 -3.3212 -24.7304 23.5648 -35.8684 -89.5319 28.0029 115.1069 65.8334 0.0000 2.1549 1.5807 9.5547 -9.4389 32.8623 0.0000 -24.3270 -15.8358 -6.7613 23.3604 -47.6758 -26.9403 -118.0511 -89.0693 -0.0000 -49.6785 -0.5106 -1.7745 -16.0566 33.1476 -0.0000 26.2537 -16.3074 4.0191 4.9721
 -3.2896 33.1466 -0.5384 8.3642 -4.1047 3.1567 -3.8736 -3.2970 -1.5251 2.8008 0.0000 -0.0000 -12.3917 -3.6469 0.5411 5.7151 -0.0000 0.0000 -2.9204 5.0313 1.3367 3.5717 -0.0000 -0.0000 -10.8759 7.6346 -7.5736 8.5163 0.0000 -0.0000 -7.8700 -2.4054 -3.2794 -24.7347 23.9475 -35.9099 -90.1155 28.3252 115.4807 66.2620 0.0000 2.4711 1.5937 9.6848 -9.3907 32.8623 0.0000 -24.3270 -15.7706 -6.7619 23.2816 -47.3121 -26.6623 -117.7488 -89.7889 -0.0000 -50.6924 -0.5847 -1.9509 -16.6865 33.1476 -0.0000 26.2537 -16.1028 3.9143 4.8755
 -3.2929 33.1478 -0.5316 8.3248 -4.0266 3.1458 -3.8017 -3.3462 -1.5164 2.7774 0.0000 0.0000 -12.3848 -3.6688 0.5246 5.6862 0.0000 -0.0000 -2.9080 5.0014 1.3448 3.6119 0.0000 0.0000 -10.8553 7.6127 -7.6360 8.4295 0.0000 -0.0000 -7.9071 -2.2602 -3.2783 -24.7978 24.2897 -35.9017 -90.6091 28.6469 115.8469 66.6687 0.0000 2.5886 1.5297 9.8997 -8.8288 32.8623 0.0000 -24.3270 -15.7064 -6.8424 23.2215 -46.9321 -26.4296 -117.4396 -90.5821 -0.0000 -51.3380 -0.6350 -2.0801 -16.9805 33.1476 -0.0000 26.2537 -15.8771 3.6006 4.7870
 -3.3017 33.1481 -0.5230 8.3324 -3.9430 3.1423 -3.7628 -3.3749 -1.5010 2.7353 0.0000 -0.0000 -12.3856 -3.7163 0.5104 5.7220 -0.0000 -0.0000 -2.9303 4.9919 1.3617 3.6356 0.0000 -0.0000 -10.8666 7.5443 -7.6082 8.5254 0.0000 -0.0000 -7.9997 -2.9318 -3.1711 -25.1388 25.5420 -35.7645 -90.8944 28.7898 116.2709 67.0216 0.0000 2.7119 1.5128 9.9273 -8.7091 32.8623 0.0000 -24.3270 -15.7368 -5.9903 23.2463 -46.4644 -26.3585 -117.0361 -91.5335 -0.0000 -52.0972 -0.6339 -2.0729 -17.0089 33.1476 -0.0000 26.2537 -15.8297 4.1692 4.5883
 -3.3072 33.1501 -0.5130 8.2943 -3.8538 3.1114 -3.6786 -3.4467 -1.4703 2.6987 0.0000 0.0000 -12.3578 -3.7255 0.5139 5.6778 0.0000 -0.0000 -2.9040 4.9503 1.3935 3.6507 -0.0000 -0.0000 -10.8635 7.5042 -7.6220 8.5179 0.0000 0.0000 -8.0626 -3.0402 -3.0814 -25.2169 26.1228 -35.7968 -91.2755 29.0191 116.7323 67.3701 0.0000 2.8733 1.5250 9.9132 -8.7907 32.8623 0.0000 -24.3270 -15.6832 -5.7652 23.1298 -46.0104 -26.2660 -116.6169 -92.4150 -0.0000 -52.6332 -0.7085 -2.3197 -16.9899 33.1476 -0.0000 26.2537 -15.6429 4.3212 4.4481
 -3.3100 33.1525 -0.5045 8.2522 -3.7423 3.0851 -3.5943 -3.5322 -1.4510 2.6664 0.0000 0.0000 -12.3367 -3.7459 0.5273 5.6805 0.0000 -0.0000 -2.8828 4.8785 1.4150 3.6691 0.0000 -0.0000 -10.8369 7.4866 -7.6798 8.4471 0.0000 -0.0000 -8.1279 -2.9126 -3.0467 -25.0634 26.1410 -35.9072 -92.0783 29.3805 117.2437 67.5467 0.0000 2.8093 1.4492 10.0147 -8.2771 32.8623 0.0000 -24.3270 -15.4919 -5.7889 23.0113 -45.6271 -26.0701 -116.2080 -93.2317 -0.0000 -53.4005 -0.7219 -2.3443 -17.1216 33.1476 -0.0000 26.2537 -15.3870 4.1192 4.3551
 -3.3118 33.1542 -0.4969 8.2109 -3.6231 3.0553 -3.5185 -3.6083 -1.4316 2.6518 -0.0000 -0.0000 -12.3230 -3.7709 0.5186 5.6560 0.0000 -0.0000 -2.8657 4.8003 1.4373 3.6904 -0.0000 -0.0000 -10.8356 7.4544 -7.6836 8.4389 -0.0000 0.0000 -8.1829 -2.6578 -3.0369 -24.9100 26.0955 -36.0043 -92.6794 29.7228 117.6922 67.7527 0.0000 3.0094 1.4785 10.1292 -8.3492 32.8623 0.0000 -24.3270 -15.4047 -6.0256 22.8896 -45.0852 -25.8449 -115.8347 -94.0921 -0.0000 -53.7412 -0.7709 -2.5058 -17.1069 33.1476 -0.0000 26.2537 -15.1441 3.7499 4.3114
 -3.3130 33.1534 -0.4912 8.1746 -3.4943 3.0301 -3.4573 -3.6839 -1.4149 2.6522 -0.0000 0.0000 -12.3426 -3.8165 0.5175 5.6647 0.0000 -0.0000 -2.8652 4.7266 1.4548 3.7293 -0.0000 0.0000 -10.8759 7.3966 -7.6042 8.5208 0.0000 -0.0000 -8.2111 -2.4011 -3.0301 -24.8142 26.0978 -36.1177 -93.2005 30.0194 118.1402 67.9562 0.0000 3.0865 1.4432 10.1975 -8.0990 32.8623 0.0000 -24.3270 -15.3937 -6.2212 22.7925 -44.5767 -25.6345 -115.5277 -94.8407 -0.0000 -54.2434 -0.9007 -2.8760 -17.3974 33.1476 -0.0000 26.2537 -14.9903 3.3992 4.2745
 -3.3158 33.1536 -0.4842 8.1562 -3.3534 3.0083 -3.4062 -3.7488 -1.3989 2.6463 -0.0000 0.0000 -12.3604 -3.8717 0.5073 5.6371 -0.0000 -0.0000 -2.8769 4.6343 1.4730 3.7540 0.0000 -0.0000 -10.8751 7.3559 -7.6010 8.4709 -0.0000 -0.0000 -8.2894 -2.5119 -2.9839 -24.7979 26.5018 -36.1305 -93.6576 30.2521 118.5832 68.0276 0.0000 3.1405 1.4429 10.3870 -7.9532 32.8623 0.0000 -24.3270 -15.1696 -5.8757 22.7142 -44.3379 -25.5104 -115.1927 -95.4459 -0.0000 -54.6662 -1.0815 -3.3288 -18.0093 33.1476 -0.0000 26.2537 -14.8182 3.3786 4.1758
 -3.3193 33.1547 -0.4776 8.1228 -3.2056 2.9842 -3.3412 -3.8306 -1.3812 2.6392 -0.0000 0.0000 -12.3586 -3.9218 0.4994 5.5905 -0.0000 -0.0000 -2.8695 4.5286 1.4933 3.7643 -0.0000 -0.0000 -10.8463 7.3278 -7.6573 8.3892 0.0000 -0.0000 -8.3557 -2.6212 -2.9494 -24.8712 26.9837 -36.0724 -93.9453 30.4906 118.9896 68.1100 0.0000 3.3465 1.4062 10.3195 -7.8029 32.8623 0.0000 -24.3270 -14.8163 -5.5021 22.6201 -44.2743 -25.4399 -114.8618 -96.0026 -0.0000 -54.8900 -1.2423 -3.7201 -18.4818 33.1476 -0.0000 26.2537 -14.6532 3.3470 4.1146
 -3.3208 33.1542 -0.4725 8.0906 -3.0573 2.9622 -3.2860 -3.9007 -1.3685 2.6472 -0.0000 -0.0000 -12.3838 -3.9851 0.4826 5.5966 0.0000 -0.0000 -2.8727 4.4379 1.5095 3.7909 -0.0000 0.0000 -10.8693 7.2700 -7.6155 8.4668 -0.0000 -0.0000 -8.4153 -2.4914 -2.9547 -25.0121 27.2746 -36.0262 -94.1801 30.7516 119.3888 68.0889 0.0000 3.3884 1.3956 10.4490 -7.6506 32.8623 0.0000 -24.3270 -14.4046 -5.3945 22.5745 -44.2897 -25.3525 -114.6295 -96.4339 -0.0000 -54.8642 -1.4581 -4.2565 -18.9297 33.1476 -0.0000 26.2537 -14.4472 3.0076 4.0685
 -3.3207 33.1550 -0.4659 8.0549 -2.8925 2.9356 -3.2158 -3.9878 -1.3569 2.6377 0.0000 0.0000 -12.3877 -4.0363 0.4979 5.5673 -0.0000 0.0000 -2.8625 4.3209 1.5239 3.7922 -0.0000 -0.0000 -10.8679 7.2470 -7.6268 8.5744 -0.0000 0.0000 -8.4760 -2.4551 -2.9180 -24.9630 27.4387 -36.0794 -94.6628 30.9313 119.8583 67.9807 0.0000 3.6420 1.3313 10.6106 -7.1931 32.8623 0.0000 -24.3270 -14.4275 -5.4464 22.4498 -43.7721 -25.3287 -114.3348 -96.8964 -0.0000 -54.8740 -1.5935 -4.5424 -19.3544 33.1476 -0.0000 26.2537 -14.2956 2.9735 4.0371
 -3.3205 33.1553 -0.4590 8.0069 -2.7218 2.9127 -3.1293 -4.0630 -1.3448 2.6254 -0.0000 0.0000 -12.3995 -4.1262 0.4961 5.5812 -0.0000 0.0000 -2.8372 4.2056 1.5345 3.7917 -0.0000 -0.0000 -10.8518 7.1956 -7.6267 8.5197 -0.0000 0.0000 -8.5258 -2.3518 -2.9078 -24.9190 27.6375 -36.1192 -95.0229 31.0929 120.2488 67.8589 0.0000 3.9256 1.2683 10.5484 -6.8958 32.8623 0.0000 -24.3270 -14.4275 -5.6139 22.2806 -43.2555 -25.3744 -114.0113 -97.4040 -0.0000 -54.8973 -1.6805 -4.7295 -19.5865 33.1476 -0.0000 26.2537 -14.1152 2.7732 4.0038
 -3.3216 33.1553 -0.4481 7.9502 -2.5286 2.8898 -3.0125 -4.1649 -1.3334 2.5868 -0.0000 0.0000 -12.4112 -4.1941 0.4668 5.5716 -0.0000 0.0000 -2.7928 4.0972 1.5484 3.7718 0.0000 0.0000 -10.8388 7.1275 -7.6681 8.5647 0.0000 -0.0000 -8.5833 -2.3527 -2.8894 -24.9738 28.0116 -36.1482 -95.2210 31.1388 120.6391 67.6829 0.0000 4.3054 1.1967 10.4072 -6.5966 32.8623 0.0000 -24.3270 -14.3118 -5.6494 22.1335 -42.8477 -25.4581 -113.7225 -97.9035 -0.0000 -55.0380 -1.6598 -4.6634 -19.6167 33.1476 -0.0000 26.2537 -13.9220 2.6281 3.9341
 -3.3216 33.1557 -0.4417 7.9071 -2.3275 2.8631 -2.9258 -4.2591 -1.3199 2.5703 -0.0000 0.0000 -12.4215 -4.2753 0.4559 5.5466 0.0000 -0.0000 -2.7791 3.9616 1.5650 3.7698 0.0000 -0.0000 -10.8243 7.0444 -7.6579 8.5482 -0.0000 0.0000 -8.6316 -2.3573 -2.8598 -25.0534 28.3858 -36.2298 -95.3167 31.0918 121.0120 67.4952 0.0000 4.5364 1.1774 10.5131 -6.4266 32.8623 0.0000 -24.3270 -14.1337 -5.6838 21.9774 -42.5172 -25.6237 -113.4217 -98.4626 -0.0000 -55.2834 -1.6100 -4.5388 -19.5545 33.1476 -0.0000 26.2537 -13.7647 2.4735 3.8487
 -3.3215 33.1569 -0.4379 7.8779 -2.1231 2.8357 -2.8596 -4.3681 -1.3039 2.5563 -0.0000 -0.0000 -12.4273 -4.3582 0.4578 5.5615 0.0000 0.0000 -2.7852 3.8293 1.5810 3.7662 0.0000 -0.0000 -10.7780 6.9934 -7.7304 8.4967 0.0000 -0.0000 -8.6888 -2.4022 -2.8391 -25.1637 28.7850 -36.2722 -95.4165 31.0152 121.4032 67.2419 0.0000 4.9117 1.1234 10.4267 -6.1841 32.8623 0.0000 -24.3270 -13.9262 -5.6223 21.8199 -42.3015 -25.9129 -113.1603 -98.9946 -0.0000 -55.6678 -1.5647 -4.4378 -19.4448 33.1476 -0.0000 26.2537 -13.6290 2.3692 3.8081
 -3.3205 33.1587 -0.4320 7.8303 -1.9199 2.8162 -2.7729 -4.4644 -1.2971 2.5424 0.0000 -0.0000 -12.4309 -4.4489 0.4520 5.5268 0.0000 -0.0000 -2.7637 3.7168 1.5887 3.7527 -0.0000 -0.0000 -10.7602 6.9001 -7.6818 8.5790 -0.0000 -0.0000 -8.7268 -2.4770 -2.8394 -25.2289 29.0917 -36.3131 -95.5498 30.8854 121.8208 66.9639 0.0000 5.0732 1.0715 10.5586 -5.8278 32.8623 0.0000 -24.3270 -13.7458 -5.5577 21.6974 -42.0904 -26.2410 -112.9482 -99.5056 -0.0000 -56.3496 -1.5760 -4.4460 -19.5413 33.1476 -0.0000 26.2537 -13.4877 2.2064 3.7699
 -3.3185 33.1597 -0.4272 7.7828 -1.7066 2.7909 -2.6849 -4.5987 -1.2854 2.5259 0.0000 -0.0000 -12.4376 -4.5204 0.4283 5.4966 -0.0000 -0.0000 -2.7464 3.5829 1.6020 3.7379 0.0000 0.0000 -10.7321 6.8166 -7.6883 8.5211 -0.0000 0.0000 -8.7541 -2.6513 -2.7750 -25.2861 29.4968 -36.4527 -95.6167 30.6412 122.2212 66.6463 0.0000 5.3112 0.9863 10.6136 -5.3397 32.8623 0.0000 -24.3270 -13.3859 -5.3785 21.5933 -42.0295 -26.5098 -112.7446 -100.0850 -0.0000 -57.0778 -1.5539 -4.3314 -19.7578 33.1476 -0.0000 26.2537 -13.4187 2.3371 3.6640
 -3.3158 33.1608 -0.4221 7.7385 -1.5029 2.7688 -2.5974 -4.6972 -1.2779 2.5054 0.0000 0.0000 -12.4530 -4.6164 0.4152 5.5209 -0.0000 -0.0000 -2.7175 3.4573 1.6074 3.6998 0.0000 -0.0000 -10.7002 6.7520 -7.7132 8.5765 -0.0000 0.0000 -8.7866 -2.7857 -2.7358 -25.3183 29.8575 -36.5348 -95.7147 30.4668 122.6153 66.2935 0.0000 5.3784 1.0143 10.8095 -5.3928 32.8623 0.0000 -24.3270 -13.1592 -5.2666 21.4778 -41.9258 -26.8192 -112.6350 -100.5838 -0.0000 -57.9524 -1.6352 -4.4558 -20.1764 33.1476 -0.0000 26.2537 -13.3268 2.3333 3.5880
 -3.3137 33.1613 -0.4184 7.7011 -1.3025 2.7475 -2.5264 -4.8023 -1.2687 2.4984 0.0000 -0.0000 -12.4709 -4.7008 0.4070 5.5189 0.0000 -0.0000 -2.7030 3.3471 1.6171 3.6753 0.0000 -0.0000 -10.6717 6.6596 -7.7158 8.5610 0.0000 -0.0000 -8.8211 -2.9512 -2.7030 -25.4089 30.3204 -36.5310 -95.7488 30.3583 122.9384 65.9440 0.0000 5.3730 1.0410 10.7828 -5.5476 32.8623 0.0000 -24.3270 -12.9876 -5.1444 21.4076 -41.8252 -27.1601 -112.5328 -101.1009 -0.0000 -58.9494 -1.7332 -4.5616 -20.8299 33.1476 -0.0000 26.2537 -13.2455 2.3437 3.5150
